<svg xmlns="http://www.w3.org/2000/svg" xmlns:xlink="http://www.w3.org/1999/xlink" version="1.1" x="0px" y="0px" viewBox="0 0 100 100"  xml:space="preserve"><path fill="#78db97" d="M40.6,65.5c-4.1,0-7.5,3.4-7.5,7.5c0,4.1,3.4,7.5,7.5,7.5c4.1,0,7.5-3.4,7.5-7.5  C48.1,68.8,44.7,65.5,40.6,65.5z M40.6,76.5c-1.9,0-3.5-1.6-3.5-3.5c0-1.9,1.6-3.5,3.5-3.5c1.9,0,3.5,1.6,3.5,3.5  C44.1,74.9,42.5,76.5,40.6,76.5z M65.7,65.5c-4.1,0-7.5,3.4-7.5,7.5c0,4.1,3.4,7.5,7.5,7.5c4.1,0,7.5-3.4,7.5-7.5  C73.2,68.8,69.9,65.5,65.7,65.5z M65.7,76.5c-1.9,0-3.5-1.6-3.5-3.5c0-1.9,1.6-3.5,3.5-3.5c1.9,0,3.5,1.6,3.5,3.5  C69.2,74.9,67.7,76.5,65.7,76.5z M75.5,53H36.2c0.4,1.5,0.7,2.6,0.9,3.3c0.7,2.9,2.3,2.9,2.3,2.9l31.5,0c4.2,0,6.3,3.1,6.9,4.9  c0.3,1-0.2,2.2-1.3,2.5c-0.2,0.1-0.4,0.1-0.6,0.1c-0.8,0-1.6-0.5-1.9-1.3c-0.1-0.2-0.9-2.1-3.1-2.1H39.5c0,0-4.7,0.3-6.3-5.9  c-1-4-7.3-27.6-9-33.8h-7.8c-1.1,0-2-0.9-2-2s0.9-2,2-2h9.3c0.9,0,1.7,0.6,1.9,1.5c0,0,4.6,17.4,7.4,28H74l6.8-21.1h-47  c-1.1,0-2-0.9-2-2s0.9-2,2-2h49.8c0.6,0,1.2,0.3,1.6,0.8c0.4,0.5,0.5,1.2,0.3,1.8l-8.1,25.1C77.1,52.4,76.3,53,75.5,53z"/></svg>