<svg height="682pt" viewBox="-21 -21 682.66669 682" width="682pt" xmlns="http://www.w3.org/2000/svg"><path fill="#e8ffee" d="m608 255.765625h-21.335938c-17.671874 0-31.996093 14.324219-31.996093 31.996094v256c0 5.894531-4.777344 10.667969-10.667969 10.667969h-448c-5.890625 0-10.667969-4.773438-10.667969-10.667969v-256c0-17.671875-14.324219-31.996094-31.996093-31.996094h-21.335938c-17.671875 0-32 14.324219-32 31.996094v320c0 17.675781 14.328125 32 32 32h576c17.671875 0 32-14.324219 32-32v-320c0-17.671875-14.328125-31.996094-32-31.996094zm10.667969 351.996094c0 5.894531-4.777344 10.667969-10.667969 10.667969h-576c-5.890625 0-10.667969-4.773438-10.667969-10.667969v-320c0-5.890625 4.777344-10.664063 10.667969-10.664063h21.335938c5.886718 0 10.664062 4.773438 10.664062 10.664063v256c0 17.671875 14.324219 32.003906 32 32.003906h448c17.675781 0 32-14.332031 32-32.003906v-256c0-5.890625 4.777344-10.664063 10.664062-10.664063h21.335938c5.890625 0 10.667969 4.773438 10.667969 10.664063zm0 0"/><path fill="#e8ffee" d="m234.667969 287.761719c0-17.671875-14.324219-31.996094-32.003907-31.996094h-63.996093c-17.675781 0-32.003907 14.324219-32.003907 31.996094v64c0 17.675781 14.328126 32 32.003907 32h63.996093c17.679688 0 32.003907-14.324219 32.003907-32zm-21.332031 64c0 5.890625-4.777344 10.667969-10.671876 10.667969h-63.996093c-5.894531 0-10.667969-4.777344-10.667969-10.667969v-64c0-5.890625 4.773438-10.664063 10.667969-10.664063h63.996093c5.894532 0 10.671876 4.773438 10.671876 10.664063zm0 0"/><path fill="#e8ffee" d="m202.664062 405.09375h-63.996093c-17.675781 0-32.003907 14.328125-32.003907 32.003906v64c0 17.667969 14.328126 31.996094 32.003907 31.996094h63.996093c17.679688 0 32.003907-14.328125 32.003907-31.996094v-64c0-17.675781-14.324219-32.003906-32.003907-32.003906zm10.671876 96.003906c0 5.886719-4.777344 10.664063-10.671876 10.664063h-63.996093c-5.894531 0-10.667969-4.777344-10.667969-10.664063v-64c0-5.894531 4.773438-10.667968 10.667969-10.667968h63.996093c5.894532 0 10.671876 4.773437 10.671876 10.667968zm0 0"/><path fill="#e8ffee" d="m288 533.09375h64c17.671875 0 32-14.328125 32-31.996094v-64c0-17.675781-14.328125-32.003906-32-32.003906h-64c-17.671875 0-32 14.328125-32 32.003906v64c0 17.667969 14.328125 31.996094 32 31.996094zm-10.664062-95.996094c0-5.894531 4.773437-10.667968 10.664062-10.667968h64c5.890625 0 10.664062 4.773437 10.664062 10.667968v64c0 5.886719-4.773437 10.664063-10.664062 10.664063h-64c-5.890625 0-10.664062-4.777344-10.664062-10.664063zm0 0"/><path fill="#e8ffee" d="m533.335938 287.761719c0-17.671875-14.328126-31.996094-32.003907-31.996094h-63.996093c-17.679688 0-32.003907 14.324219-32.003907 31.996094v64c0 17.675781 14.324219 32 32.003907 32h63.996093c17.675781 0 32.003907-14.324219 32.003907-32zm-21.335938 64c0 5.890625-4.773438 10.667969-10.667969 10.667969h-63.996093c-5.894532 0-10.671876-4.777344-10.671876-10.667969v-64c0-5.890625 4.777344-10.664063 10.671876-10.664063h63.996093c5.894531 0 10.667969 4.773438 10.667969 10.664063zm0 0"/><path fill="#e8ffee" d="m501.332031 405.09375h-63.996093c-17.679688 0-32.003907 14.328125-32.003907 32.003906v64c0 17.667969 14.324219 31.996094 32.003907 31.996094h63.996093c17.675781 0 32.003907-14.328125 32.003907-31.996094v-64c0-17.675781-14.328126-32.003906-32.003907-32.003906zm10.667969 96.003906c0 5.886719-4.773438 10.664063-10.667969 10.664063h-63.996093c-5.894532 0-10.671876-4.777344-10.671876-10.664063v-64c0-5.894531 4.777344-10.667968 10.671876-10.667968h63.996093c5.894531 0 10.667969 4.773437 10.667969 10.667968zm0 0"/><path fill="#e8ffee" d="m330.667969 202.429688v-140.480469c.015625-12.9375-7.757813-24.617188-19.707031-29.589844-11.941407-4.972656-25.707032-2.257813-34.875 6.871094l-28.800782 28.800781-58.410156-58.328125c-12.5-12.492187-32.75-12.492187-45.246094 0l-37.675781 37.6875c-12.492187 12.496094-12.492187 32.75 0 45.25l58.378906 58.378906-28.800781 28.796875c-9.144531 9.15625-11.875 22.921875-6.917969 34.875 4.960938 11.953125 16.628907 19.746094 29.574219 19.738282h140.480469c17.667969 0 32-14.328126 32-32zm-182.402344 4.050781c-1.695313-3.953125-.78125-8.542969 2.296875-11.550781l36.371094-36.371094c4.164062-4.167969 4.164062-10.917969 0-15.085938l-65.910156-65.917968c-4.164063-4.164063-4.164063-10.917969 0-15.082032l37.671874-37.675781c4.171876-4.164063 10.917969-4.164063 15.085938 0l65.921875 65.917969c4.164063 4.164062 10.917969 4.164062 15.082031 0l36.371094-36.371094c3.0625-3.039062 7.652344-3.929688 11.625-2.265625 3.980469 1.664063 6.5625 5.5625 6.550781 9.871094v140.480469c0 5.886718-4.777343 10.664062-10.664062 10.664062h-140.480469c-4.359375.066406-8.304688-2.5625-9.921875-6.613281zm0 0"/><path fill="#e8ffee" d="m277.335938 138.429688c-5.894532 0-10.671876 4.777343-10.671876 10.664062v21.332031h-21.332031c-5.886719 0-10.664062 4.777344-10.664062 10.671875 0 5.886719 4.777343 10.664063 10.664062 10.664063h21.332031c11.78125 0 21.335938-9.550781 21.335938-21.335938v-21.332031c0-5.886719-4.777344-10.664062-10.664062-10.664062zm0 0"/></svg>