<svg id="Capa_1" enable-background="new 0 0 512 512" height="512" viewBox="0 0 512 512" width="512" xmlns="http://www.w3.org/2000/svg"><g><path fill="#e8ffee" d="m507.607 153.915-38.963-38.963c22.418-17.896 27.543-53.249 4.602-76.19-22.995-22.995-58.322-17.816-76.192 4.6l-38.969-38.968c-5.857-5.857-15.355-5.857-21.213 0l-45.566 45.566c-18.053-23.568-54.183-28.014-76.818-5.38-22.287 22.287-18.681 58.412 5.379 76.819l-109.817 109.817c-8.564 8.562-3.939 23.281 8.012 25.38 15.819 2.779 23.714 23.289 11.32 35.684-12.328 12.324-32.904 4.516-35.691-11.319-2.096-11.911-16.789-16.596-25.379-8.006l-63.918 63.917c-5.858 5.857-5.858 15.355 0 21.213l38.905 38.906c-21.981 18.274-26.269 53.109-3.83 75.547 22.524 22.524 57.324 18.129 75.551-3.826l38.896 38.895c5.859 5.859 15.355 5.858 21.213 0l48.936-48.936c18.279 22.037 53.15 26.313 75.587 3.876 22.382-22.382 18.288-57.241-3.871-75.591 4.383-4.383 106.235-106.236 111.484-111.485 9.101-9.101 3.217-24.751-9.648-25.576-17.911-1.146-26.626-23.181-13.811-35.996 12.754-12.754 34.856-4.129 35.996 13.804.817 12.848 16.458 18.775 25.576 9.655l62.229-62.229c5.858-5.858 5.858-15.357 0-21.214zm-240.027 251.824c15.474 3.066 23.154 23.298 10.857 35.595-12.209 12.21-32.521 4.653-35.604-10.858-2.331-11.731-16.848-16.158-25.318-7.683l-52.993 52.994-42.939-42.938c-8.449-8.451-22.962-4.078-25.314 7.66-3.095 15.45-23.305 23.097-35.586 10.816-12.178-12.18-4.7-32.477 10.818-35.595 11.71-2.352 16.115-16.849 7.651-25.313l-42.938-42.939 38.369-38.369c17.995 22.29 53.206 27.189 76.013 4.383 22.914-22.914 17.845-58.097-4.38-76.016l38.367-38.367 28.322 28.323c-22.184 18.139-26.775 53.198-4.15 75.821 22.775 22.775 57.795 17.939 75.823-4.148l28.314 28.313-53 53c-8.463 8.462-4.067 22.992 7.688 25.321zm173.052-206.063c-17.386-24.712-54.618-30.414-78.04-6.99-23.464 23.464-17.7 60.678 6.991 78.04l-35.48 35.48-43.137-43.136c-8.522-8.524-23.148-3.987-25.353 7.86-2.916 15.659-23.297 23.462-35.647 11.111-12.25-12.25-4.608-32.725 11.106-35.654 11.849-2.207 16.379-16.832 7.858-25.353l-43.136-43.137c.259-.259 50.66-50.663 50.832-50.835 8.785-8.835 3.502-23.826-8.673-25.435-16.44-2.172-24.896-23.19-12.253-35.834 12.384-12.381 33.614-4.567 35.841 12.248 1.632 12.323 16.721 17.388 25.474 8.636l50.464-50.464c9.554 9.551 42.798 42.808 43.556 43.543 8.616 8.433 23.273 3.7 25.274-8.261 2.651-15.939 23.262-23.979 35.724-11.521 11.99 11.99 5.187 32.733-11.698 35.772-11.979 2.133-16.46 16.924-7.93 25.393l43.382 43.382z"/></g></svg>